<?xml version="1.0" encoding="UTF-8"?>
<svg version="1.1" xmlns="http://www.w3.org/2000/svg" width="272" height="265">
<path d="M0 0 C1.27682648 -0.00571014 2.55365295 -0.01142029 3.86917114 -0.01730347 C5.27186575 -0.01854862 6.67456046 -0.01967376 8.07725525 -0.02069092 C9.56441876 -0.02532379 11.05158109 -0.03034907 12.53874207 -0.03573608 C16.57012237 -0.04882003 20.60148605 -0.05529762 24.63288426 -0.05974674 C27.15672161 -0.06268495 29.68055449 -0.06679123 32.20438957 -0.07125092 C40.11572499 -0.08491752 48.02705011 -0.09458733 55.93839651 -0.09845281 C65.04272339 -0.10292664 74.14689961 -0.12044662 83.25118071 -0.1494534 C90.30622664 -0.17114349 97.36123042 -0.18116104 104.4163093 -0.18249393 C108.62140008 -0.18353705 112.82634909 -0.18933865 117.0314045 -0.20731354 C120.99348406 -0.22392069 124.95531724 -0.22588918 128.91741943 -0.21717453 C130.36165978 -0.21641077 131.80591406 -0.22065826 133.25012016 -0.23063278 C151.40483281 -0.34854019 166.11348556 3.59858142 179.55747986 16.14044189 C193.14680746 30.46754385 196.04038634 47.5379626 195.92979431 66.72369385 C195.93222962 68.22838084 195.93595604 69.73306621 195.94085693 71.23774719 C195.95016456 75.2788045 195.94092916 79.31961531 195.92752481 83.36065316 C195.91610768 87.61115768 195.9203254 91.86165188 195.92227173 96.11216736 C195.92315101 103.24085461 195.91214734 110.36944609 195.8936615 117.49810791 C195.87245884 125.72116722 195.86899485 133.94408683 195.87522346 142.16716796 C195.8809299 150.11001625 195.87525899 158.05281572 195.86404991 165.99565697 C195.85942501 169.36265154 195.85852083 172.72961606 195.86063576 176.09661293 C195.86252806 180.06205226 195.85434287 184.02735061 195.83857536 187.9927578 C195.83435698 189.4418975 195.83346535 190.89105157 195.83626556 192.3401947 C195.85418634 203.27850428 194.9456959 212.34473342 189.86997986 222.14044189 C189.51331238 222.83395752 189.1566449 223.52747314 188.78916931 224.24200439 C183.43903615 234.39786703 177.26392751 240.9056434 167.55747986 247.14044189 C166.91165955 247.56325439 166.26583923 247.98606689 165.60044861 248.42169189 C155.03528301 254.49838845 141.27756069 254.58164683 129.47496033 254.51275635 C128.03572834 254.51519292 126.59649806 254.51892055 125.15727234 254.52381897 C121.29781364 254.53311167 117.43861372 254.52390292 113.57917547 254.51048684 C109.5120583 254.49904635 105.44495155 254.50328936 101.37782288 254.50523376 C94.55436551 254.5061126 87.73100828 254.49512112 80.90757751 254.47662354 C73.05095907 254.45544526 65.1944869 254.45195217 57.33784568 254.45818549 C49.73512548 254.46390542 42.13245607 254.45820374 34.52974319 254.44701195 C31.31398186 254.44240237 28.09825196 254.44147612 24.88248825 254.44359779 C21.08856322 254.44549945 17.29478434 254.43723473 13.50089264 254.4215374 C11.46746743 254.41536205 9.43401995 254.41877244 7.40058899 254.42260742 C-3.52775069 254.36024259 -14.65700967 253.93195422 -24.50502014 248.76544189 C-25.17057922 248.42384033 -25.83613831 248.08223877 -26.52186584 247.73028564 C-40.41422635 240.14083268 -48.24428589 228.18547434 -53.42689514 213.60528564 C-55.56756792 206.30229813 -55.58634005 199.26043028 -55.57191467 191.70196533 C-55.57366699 190.56722778 -55.57541931 189.43249023 -55.57722473 188.2633667 C-55.58162544 184.50883452 -55.57870597 180.75434957 -55.57533264 176.99981689 C-55.57600749 174.35839835 -55.57697902 171.71697986 -55.57823181 169.07556152 C-55.58005134 163.52068582 -55.57766034 157.96582339 -55.57289124 152.41094971 C-55.56811164 146.78073248 -55.56802641 141.15054184 -55.57289124 135.52032471 C-55.58793319 117.3933172 -55.56347626 99.26716505 -55.44252014 81.14044189 C-55.43602951 80.1304715 -55.42953888 79.1205011 -55.42285156 78.07992554 C-55.38631952 72.95156622 -55.32822042 67.82457136 -55.22544479 62.69709015 C-55.18679844 60.64223601 -55.16466589 58.58709073 -55.14347839 56.53198242 C-54.75541845 41.68600596 -49.88914217 27.12432583 -39.60658264 16.11700439 C-28.29587671 5.78628743 -15.45796996 0.04158056 0 0 Z " fill="#090B1D" transform="translate(64.44252014160156,4.85955810546875)"/>
<path d="M0 0 C8.25170052 6.31854725 11.31242886 17.61070345 14.98828125 26.94140625 C15.48311922 28.18809914 15.97825001 29.43467584 16.47363281 30.68115234 C18.34158768 35.38940176 20.19665737 40.10269602 22.05078125 44.81640625 C22.46120667 45.85974121 22.87163208 46.90307617 23.29449463 47.97802734 C27.57888883 58.87155914 31.86068759 69.76610547 36.13256836 80.66455078 C37.04793583 82.99905422 37.96338053 85.33352737 38.87890625 87.66796875 C39.3223085 88.79881897 39.76571075 89.92966919 40.22254944 91.0947876 C42.94156218 98.01990485 45.69506995 104.93022984 48.47265625 111.83203125 C51.14677218 118.4862075 53.72180917 125.15700931 56.05078125 131.94140625 C56.34855469 132.78832031 56.64632812 133.63523438 56.953125 134.5078125 C59.05078125 140.54944916 59.05078125 140.54944916 59.05078125 142.81640625 C55.04899783 142.89108782 51.04748958 142.94525646 47.04516602 142.98120117 C45.68637008 142.99620034 44.32762184 143.01660663 42.96899414 143.04272461 C27.29533718 143.3362819 27.29533718 143.3362819 20.48828125 137.69140625 C16.01063201 132.41007637 12.48817695 126.58770303 8.98828125 120.62890625 C5.19097905 114.26719217 1.44011489 109.67972427 -4.94921875 105.81640625 C-4.86671875 107.07453125 -4.78421875 108.33265625 -4.69921875 109.62890625 C-4.72441684 117.62929976 -7.55815278 125.46335892 -13.1484375 131.26171875 C-28.06373579 144.13870078 -46.34431067 143.35739674 -64.88671875 143.06640625 C-67.13084333 143.04629848 -69.37498542 143.02805532 -71.61914062 143.01171875 C-77.06288862 142.96809095 -82.50596947 142.90152261 -87.94921875 142.81640625 C-87.38204263 139.77050921 -86.71495501 136.88077742 -85.6796875 133.9609375 C-85.43025391 133.25517578 -85.18082031 132.54941406 -84.92382812 131.82226562 C-84.53420898 130.73655273 -84.53420898 130.73655273 -84.13671875 129.62890625 C-83.76450195 128.57219727 -83.76450195 128.57219727 -83.38476562 127.49414062 C-82.02987528 123.6845889 -80.60230082 119.91355902 -79.08959961 116.16381836 C-77.03180384 111.03700233 -75.02642626 105.89124 -73.03515625 100.73828125 C-72.27494307 98.77415416 -71.5146873 96.81004355 -70.75439453 94.84594727 C-70.35835022 93.82236115 -69.96230591 92.79877502 -69.55426025 91.74417114 C-67.00642013 85.16192422 -64.45289641 78.58188009 -61.90005493 72.00157166 C-59.72572227 66.39688274 -57.55215764 60.7919004 -55.38085938 55.18603516 C-53.33823468 49.91367709 -51.29045365 44.64334746 -49.23907471 39.37438965 C-48.46940968 37.39515883 -47.70143359 35.4152703 -46.9352417 33.43469238 C-34.89508204 2.32062557 -34.89508204 2.32062557 -25.78125 -2.27734375 C-16.86849284 -5.59086448 -8.1952317 -4.97626293 0 0 Z " fill="#508CF9" transform="translate(147.94921875,49.18359375)"/>
<path d="M0 0 C5 1 5 1 6.73828125 3.2578125 C7.51751953 4.67707031 7.51751953 4.67707031 8.3125 6.125 C12.14908264 12.53308523 16.55664324 16.50435611 22.5546875 20.8515625 C29.20441911 25.80432996 33.83102691 30.74255579 35.3984375 39.1328125 C35.66018649 44.26711956 34.12490066 48.43539858 32 53 C30.515 53.99 30.515 53.99 29 55 C28.94392578 53.91332031 28.94392578 53.91332031 28.88671875 52.8046875 C28.3954724 45.58047646 27.6603501 40.72523668 22.4375 35.375 C19.74913688 33.26775609 16.96235212 32.08094278 13.78515625 30.8515625 C12.88804932 30.50174316 11.99094238 30.15192383 11.06665039 29.79150391 C10.38465576 29.53030762 9.70266113 29.26911133 9 29 C8.9906543 30.22517334 8.98130859 31.45034668 8.97167969 32.71264648 C8.93157251 37.29210733 8.8657572 41.87091094 8.79248047 46.44995117 C8.7643905 48.42545072 8.74311686 50.40106015 8.72900391 52.37670898 C8.70740767 55.2295713 8.66067366 58.08112891 8.609375 60.93359375 C8.60753204 62.24196449 8.60753204 62.24196449 8.60565186 63.57676697 C8.4322674 70.96451232 6.09871564 76.44832738 2.375 82.75 C-3.20950318 88.04058196 -9.07444666 90.31688229 -16.75 90.5625 C-21.93043834 90.33726355 -25.16994992 89.73184367 -29 86 C-32.63947406 81.88164777 -33.66789521 78.65728917 -33.37109375 73.296875 C-32.14977868 65.73757753 -28.12341567 61.79119642 -22.12109375 57.34765625 C-18.00138244 54.73016011 -14.14919494 54.84825433 -9.4375 54.875 C-8.75236328 54.87113281 -8.06722656 54.86726563 -7.36132812 54.86328125 C-2.2533867 54.87330665 -2.2533867 54.87330665 0 56 C0 37.52 0 19.04 0 0 Z " fill="#070A1D" transform="translate(129,92)"/>
<path d="M0 0 C0.66 0.33 1.32 0.66 2 1 C1.50628906 1.66386719 1.01257813 2.32773437 0.50390625 3.01171875 C-0.45708984 4.33623047 -0.45708984 4.33623047 -1.4375 5.6875 C-2.39462891 6.99267578 -2.39462891 6.99267578 -3.37109375 8.32421875 C-4.98971649 10.98310742 -5.6083962 12.93887169 -6 16 C-6.66 16 -7.32 16 -8 16 C-8.11601563 16.67289063 -8.23203125 17.34578125 -8.3515625 18.0390625 C-9.12477266 21.56974504 -10.22134624 24.95524065 -11.375 28.375 C-11.58382812 29.00921875 -11.79265625 29.6434375 -12.0078125 30.296875 C-13.45964141 34.63465651 -15.15574582 38.81023281 -17 43 C-19.10325984 47.87273549 -21.14721863 52.76292379 -23.125 57.6875 C-23.38925781 58.33783203 -23.65351562 58.98816406 -23.92578125 59.65820312 C-24.91862069 62.13022214 -25.8882526 64.55301041 -26.53515625 67.140625 C-27.15376847 69.61507386 -28.217483 71.76059119 -29.3125 74.0625 C-32.44075745 80.82679003 -35.27923554 87.73284296 -37 95 C-38.09702883 98.83960089 -39.59718316 102.22410768 -41.4375 105.75 C-43.63196851 110.01666458 -45.04176526 114.19496024 -46.3125 118.80859375 C-47.15288016 121.4873055 -48.48030828 123.65138553 -50 126 C-50.35894678 127.32666729 -50.68800393 128.66151304 -51 130 C-51.51246442 131.752469 -52.03362512 133.50241346 -52.5625 135.25 C-52.83191406 136.14203125 -53.10132812 137.0340625 -53.37890625 137.953125 C-53.68634766 138.96632812 -53.68634766 138.96632812 -54 140 C-49.56675125 138.29674105 -45.41838295 136.20803673 -41.20703125 134.0234375 C-39 133 -39 133 -37 133 C-37 132.34 -37 131.68 -37 131 C-35.29715276 129.79799018 -33.59330175 128.59735992 -31.8828125 127.40625 C-26.52941585 123.40786246 -24.59820111 119.51478001 -23.45703125 113.1796875 C-22.51257016 108.67533462 -20.48993193 104.99137022 -17 102 C-16.01 102.495 -16.01 102.495 -15 103 C-15.34933594 103.47050781 -15.69867188 103.94101563 -16.05859375 104.42578125 C-16.74115234 105.35970703 -16.74115234 105.35970703 -17.4375 106.3125 C-18.11619141 107.23482422 -18.11619141 107.23482422 -18.80859375 108.17578125 C-21.59224957 112.43796902 -21.60451568 117.08831007 -21 122 C-18.74439088 126.51121825 -16.48818865 128.79091991 -12 131 C-5.15866461 131.80537239 1.53692378 131.40486557 8 129 C8 129.66 8 130.32 8 131 C7.01 131 6.02 131 5 131 C5.66 131.99 6.32 132.98 7 134 C8.65 133.01 10.3 132.02 12 131 C11.84375 132.8359375 11.84375 132.8359375 11 135 C8.59375 136.4140625 8.59375 136.4140625 5.5 137.625 C4.4996875 138.02976563 3.499375 138.43453125 2.46875 138.8515625 C-5.57156618 141.51355907 -12.92283573 142.28229732 -21.37890625 142.1953125 C-22.43158188 142.1924826 -23.48425751 142.18965271 -24.5688324 142.18673706 C-27.90017516 142.17562562 -31.23123977 142.15053798 -34.5625 142.125 C-36.83398047 142.11495852 -39.10546519 142.10583472 -41.37695312 142.09765625 C-46.91806216 142.07571597 -52.4590112 142.0423295 -58 142 C-57.43282388 138.95410296 -56.76573626 136.06437117 -55.73046875 133.14453125 C-55.48103516 132.43876953 -55.23160156 131.73300781 -54.97460938 131.00585938 C-54.58499023 129.92014648 -54.58499023 129.92014648 -54.1875 128.8125 C-53.93935547 128.10802734 -53.69121094 127.40355469 -53.43554688 126.67773438 C-52.08065653 122.86818265 -50.65308207 119.09715277 -49.14038086 115.34741211 C-47.08258509 110.22059608 -45.07720751 105.07483375 -43.0859375 99.921875 C-42.32572432 97.95774791 -41.56546855 95.9936373 -40.80517578 94.02954102 C-40.40913147 93.0059549 -40.01308716 91.98236877 -39.6050415 90.92776489 C-37.05720138 84.34551797 -34.50367766 77.76547384 -31.95083618 71.18516541 C-29.77650352 65.58047649 -27.60293889 59.97549415 -25.43164062 54.36962891 C-23.38901593 49.09727084 -21.3412349 43.82694121 -19.28985596 38.5579834 C-18.52019093 36.57875258 -17.75221484 34.59886405 -16.98602295 32.61828613 C-6.52954397 5.59675197 -6.52954397 5.59675197 0 0 Z " fill="#4467EE" transform="translate(118,50)"/>
<path d="M0 0 C0.99 0.33 1.98 0.66 3 1 C3 20.47 3 39.94 3 60 C-1 62 -1 62 -3 62 C-3.495 64.97 -3.495 64.97 -4 68 C-4.33 68 -4.66 68 -5 68 C-5.66 70.31 -6.32 72.62 -7 75 C-7.99 75 -8.98 75 -10 75 C-11.21618998 72.56762005 -11.12688905 71.00860217 -11.12939453 68.29077148 C-11.13254669 67.31313339 -11.13569885 66.3354953 -11.13894653 65.32823181 C-11.1369223 64.26987625 -11.13489807 63.21152069 -11.1328125 62.12109375 C-11.13376923 61.03868912 -11.13472595 59.95628448 -11.13571167 58.84107971 C-11.13639298 56.55038393 -11.13454211 54.25968623 -11.13037109 51.96899414 C-11.12501701 48.44868672 -11.13032044 44.92850659 -11.13671875 41.40820312 C-11.13605806 39.18749972 -11.13477709 36.96679639 -11.1328125 34.74609375 C-11.13483673 33.68571396 -11.13686096 32.62533417 -11.13894653 31.53282166 C-11.13579437 30.55833572 -11.13264221 29.58384979 -11.12939453 28.57983398 C-11.12859894 27.71760727 -11.12780334 26.85538055 -11.12698364 25.96702576 C-11 24 -11 24 -10 23 C-8.35 23 -6.7 23 -5 23 C-4.67 28.28 -4.34 33.56 -4 39 C-4.02320313 36.71320313 -4.04640625 34.42640625 -4.0703125 32.0703125 C-4.0859026 29.85954341 -4.09805097 27.6487804 -4.10986328 25.43798828 C-4.11993118 23.89954902 -4.13358646 22.36112893 -4.15087891 20.82275391 C-4.17509317 18.61355867 -4.18647491 16.40461605 -4.1953125 14.1953125 C-4.20563507 13.50567413 -4.21595764 12.81603577 -4.22659302 12.10549927 C-4.22699478 10.40199094 -4.12191026 8.69914057 -4 7 C-3.34 6.34 -2.68 5.68 -2 5 C-1.29289322 3.35008418 -0.62056011 1.68437744 0 0 Z " fill="#211D40" transform="translate(68,87)"/>
<path d="M0 0 C1.32 0.33 2.64 0.66 4 1 C4 20.8 4 40.6 4 61 C1 62 1 62 -2 61 C-2.495 63.475 -2.495 63.475 -3 66 C-5.50289389 62.24565916 -7.06315399 58.35794339 -8.75 54.1875 C-9.09160156 53.39279297 -9.43320313 52.59808594 -9.78515625 51.77929688 C-11.3997714 47.76269252 -12.16840176 45.75533141 -11.203125 41.42578125 C-10.80609375 40.62527344 -10.4090625 39.82476562 -10 39 C-9.34 39 -8.68 39 -8 39 C-8.32597168 38.44280273 -8.65194336 37.88560547 -8.98779297 37.31152344 C-10.14262179 34.6743022 -10.23027983 32.882946 -10.1953125 30.015625 C-10.18886719 29.08105469 -10.18242187 28.14648438 -10.17578125 27.18359375 C-10.15902344 26.21550781 -10.14226562 25.24742188 -10.125 24.25 C-10.11597656 23.26644531 -10.10695312 22.28289062 -10.09765625 21.26953125 C-10.07412785 18.84610593 -10.04125368 16.42317778 -10 14 C-9.01 13.67 -8.02 13.34 -7 13 C-6.34 13.33 -5.68 13.66 -5 14 C-4.67 21.92 -4.34 29.84 -4 38 C-3.01 37.505 -3.01 37.505 -2 37 C-1.97494385 35.91468994 -1.9498877 34.82937988 -1.92407227 33.71118164 C-1.83016245 29.698684 -1.72990233 25.68636618 -1.62768555 21.67407227 C-1.58427427 19.93485712 -1.54260388 18.19559765 -1.50268555 16.45629883 C-1.44513232 13.96161512 -1.3813958 11.4671559 -1.31640625 8.97265625 C-1.29969376 8.19036148 -1.28298126 7.40806671 -1.26576233 6.60206604 C-1.11387171 1.11387171 -1.11387171 1.11387171 0 0 Z " fill="#07142A" transform="translate(196,87)"/>
<path d="M0 0 C0.66 0.33 1.32 0.66 2 1 C1.50628906 1.66386719 1.01257813 2.32773437 0.50390625 3.01171875 C-0.45708984 4.33623047 -0.45708984 4.33623047 -1.4375 5.6875 C-2.39462891 6.99267578 -2.39462891 6.99267578 -3.37109375 8.32421875 C-4.98971649 10.98310742 -5.6083962 12.93887169 -6 16 C-6.66 16 -7.32 16 -8 16 C-8.11601563 16.67289063 -8.23203125 17.34578125 -8.3515625 18.0390625 C-9.12477266 21.56974504 -10.22134624 24.95524065 -11.375 28.375 C-11.58382812 29.00921875 -11.79265625 29.6434375 -12.0078125 30.296875 C-13.45964141 34.63465651 -15.15574582 38.81023281 -17 43 C-19.10325984 47.87273549 -21.14721863 52.76292379 -23.125 57.6875 C-23.38925781 58.33783203 -23.65351562 58.98816406 -23.92578125 59.65820312 C-24.91862069 62.13022214 -25.8882526 64.55301041 -26.53515625 67.140625 C-27.15376847 69.61507386 -28.217483 71.76059119 -29.3125 74.0625 C-32.44075745 80.82679003 -35.27923554 87.73284296 -37 95 C-38.09702883 98.83960089 -39.59718316 102.22410768 -41.4375 105.75 C-43.63196851 110.01666458 -45.04176526 114.19496024 -46.3125 118.80859375 C-47.15288016 121.4873055 -48.48030828 123.65138553 -50 126 C-50.35894678 127.32666729 -50.68800393 128.66151304 -51 130 C-51.51246442 131.752469 -52.03362512 133.50241346 -52.5625 135.25 C-52.83191406 136.14203125 -53.10132812 137.0340625 -53.37890625 137.953125 C-53.68634766 138.96632812 -53.68634766 138.96632812 -54 140 C-49.56675125 138.29674105 -45.41838295 136.20803673 -41.20703125 134.0234375 C-39 133 -39 133 -37 133 C-37 132.34 -37 131.68 -37 131 C-35.3043832 129.80309402 -33.60619723 128.60952962 -31.890625 127.44140625 C-29.08261289 125.3005871 -27.14424137 122.79401148 -25 120 C-25 124.00935872 -26.4273763 125.19260429 -29.02734375 128.09375 C-34.51926456 133.40079427 -40.85620376 137.35990139 -48 140 C-43.05 140.33 -38.1 140.66 -33 141 C-33 141.33 -33 141.66 -33 142 C-41.25 142 -49.5 142 -58 142 C-57.35993644 138.79968218 -56.79428211 136.14488109 -55.73046875 133.14453125 C-55.48103516 132.43876953 -55.23160156 131.73300781 -54.97460938 131.00585938 C-54.58499023 129.92014648 -54.58499023 129.92014648 -54.1875 128.8125 C-53.93935547 128.10802734 -53.69121094 127.40355469 -53.43554688 126.67773438 C-52.08065653 122.86818265 -50.65308207 119.09715277 -49.14038086 115.34741211 C-47.08258509 110.22059608 -45.07720751 105.07483375 -43.0859375 99.921875 C-42.32572432 97.95774791 -41.56546855 95.9936373 -40.80517578 94.02954102 C-40.40913147 93.0059549 -40.01308716 91.98236877 -39.6050415 90.92776489 C-37.05720138 84.34551797 -34.50367766 77.76547384 -31.95083618 71.18516541 C-29.77650352 65.58047649 -27.60293889 59.97549415 -25.43164062 54.36962891 C-23.38901593 49.09727084 -21.3412349 43.82694121 -19.28985596 38.5579834 C-18.52019093 36.57875258 -17.75221484 34.59886405 -16.98602295 32.61828613 C-6.52954397 5.59675197 -6.52954397 5.59675197 0 0 Z " fill="#8C4CEF" transform="translate(118,50)"/>
<path d="M0 0 C0.73046875 1.6796875 0.73046875 1.6796875 1 4 C-0.51171875 6.3828125 -0.51171875 6.3828125 -2.6875 9.125 C-13.33293206 24.65655533 -12.11591922 45.83321805 -13 64 C-13.33 64 -13.66 64 -14 64 C-14.97120565 78.31605803 -15.2092567 92.59968889 -15.31640625 106.9453125 C-15.33703147 109.29613564 -15.35802915 111.64695555 -15.37937927 113.99777222 C-15.43402608 120.12299947 -15.48368329 126.2482569 -15.53222656 132.37353516 C-15.58286639 138.64878967 -15.63832848 144.92400148 -15.69335938 151.19921875 C-15.80023664 163.46610917 -15.90183169 175.73303701 -16 188 C-16.33 188 -16.66 188 -17 188 C-17.02364756 172.69765482 -17.04113206 157.39531106 -17.05181217 142.09295177 C-17.05690895 134.98342959 -17.06386052 127.8739191 -17.07543945 120.7644043 C-17.16195933 66.1039758 -17.16195933 66.1039758 -16.78719902 47.52672768 C-16.74820649 45.47447886 -16.72568946 43.42193639 -16.70411682 41.36943054 C-16.28559255 25.5458137 -10.81514941 11.58766008 0 0 Z " fill="#81818B" transform="translate(26,20)"/>
<path d="M0 0 C2.85214333 -0.22777534 4.54725743 -0.25895503 7.0625 1.1796875 C7.701875 1.73914062 8.34125 2.29859375 9 2.875 C9.639375 3.40867188 10.27875 3.94234375 10.9375 4.4921875 C16.70395513 11.50367271 19.64497955 20.76733856 22.9375 29.125 C23.43233797 30.37169289 23.92746876 31.61826959 24.42285156 32.86474609 C26.29080643 37.57299551 28.14587612 42.28628977 30 47 C30.41042542 48.04333496 30.82085083 49.08666992 31.24371338 50.16162109 C35.52810758 61.05515289 39.80990634 71.94969922 44.08178711 82.84814453 C44.99715458 85.18264797 45.91259928 87.51712112 46.828125 89.8515625 C47.27152725 90.98241272 47.7149295 92.11326294 48.17176819 93.27838135 C50.89078093 100.2034986 53.6442887 107.11382359 56.421875 114.015625 C59.09599093 120.66980125 61.67102792 127.34060306 64 134.125 C64.29777344 134.97191406 64.59554687 135.81882813 64.90234375 136.69140625 C67 142.73304291 67 142.73304291 67 145 C58.42 145 49.84 145 41 145 C41 144.67 41 144.34 41 144 C52.385 143.01 52.385 143.01 64 142 C63.236875 140.205625 62.47375 138.41125 61.6875 136.5625 C59.84620487 132.15063273 58.19996796 127.74759582 56.73828125 123.19921875 C55.03419668 118.12303032 52.92570847 113.19230283 50.84375 108.26171875 C48.12537765 101.82300988 45.59347386 95.33824881 43.1628418 88.78710938 C41.80377363 85.12784356 40.41197139 81.48983308 38.9375 77.875 C37.34645314 73.9534986 35.91140034 69.98967269 34.5 66 C31.51691197 55.77456548 31.51691197 55.77456548 26 47 C25.33869442 45.03918563 24.74439786 43.0554834 24.1875 41.0625 C22.57976619 35.62739989 20.58900091 30.62555439 18.171875 25.5078125 C15.91192312 20.67151549 14 16.41935693 14 11 C13.34 11 12.68 11 12 11 C9.875 9.125 9.875 9.125 8 7 C8 6.34 8 5.68 8 5 C6.02 4.34 4.04 3.68 2 3 C2 2.34 2 1.68 2 1 C1.34 0.67 0.68 0.34 0 0 Z " fill="#0BCBE3" transform="translate(140,47)"/>
<path d="M0 0 C1.32 0 2.64 0 4 0 C4.33 3.96 4.66 7.92 5 12 C5.99 10.35 6.98 8.7 8 7 C8.99 7.33 9.98 7.66 11 8 C11 13.61 11 19.22 11 25 C9.35 25 7.7 25 6 25 C5.731875 25.78375 5.46375 26.5675 5.1875 27.375 C4 30 4 30 1 32 C0.01 31.34 -0.98 30.68 -2 30 C-2.40843923 27.28796348 -2.13336867 24.7562858 -2 22 C-2.969375 22.020625 -3.93875 22.04125 -4.9375 22.0625 C-8 22 -8 22 -9 21 C-9.07205511 19.31391034 -9.08386068 17.62499341 -9.0625 15.9375 C-9.05347656 15.01839844 -9.04445313 14.09929687 -9.03515625 13.15234375 C-9.02355469 12.44207031 -9.01195313 11.73179687 -9 11 C-7.35 10.67 -5.7 10.34 -4 10 C-3.67 10.66 -3.34 11.32 -3 12 C-2.80083984 10.82630859 -2.80083984 10.82630859 -2.59765625 9.62890625 C-2.42105469 8.61699219 -2.24445312 7.60507813 -2.0625 6.5625 C-1.88847656 5.55316406 -1.71445312 4.54382813 -1.53515625 3.50390625 C-1 1 -1 1 0 0 Z " fill="#2D2449" transform="translate(34,119)"/>
<path d="M0 0 C6.07485221 9.11227831 5.43300011 22.05537955 5.37231445 32.58325195 C5.37474976 34.08793895 5.37847618 35.59262431 5.38337708 37.0973053 C5.3926847 41.13836261 5.3834493 45.17917341 5.37004495 49.22021127 C5.35862782 53.47071579 5.36284554 57.72120999 5.36479187 61.97172546 C5.36567115 69.10041271 5.35466749 76.2290042 5.33618164 83.35766602 C5.31497898 91.58072533 5.31151499 99.80364494 5.3177436 108.02672607 C5.32345004 115.96957435 5.31777913 123.91237383 5.30657005 131.85521507 C5.30194515 135.22220965 5.30104097 138.58917416 5.3031559 141.95617104 C5.3050482 145.92161037 5.29686301 149.88690871 5.2810955 153.8523159 C5.27687712 155.3014556 5.27598549 156.75060967 5.27878571 158.19975281 C5.2912023 165.77846942 5.01845721 172.67547375 3 180 C2.67 180 2.34 180 2 180 C2.00092179 179.13509477 2.00184359 178.27018953 2.00279331 177.37907505 C2.02484649 156.36550982 2.04141055 135.35194658 2.05181217 114.33837223 C2.0569756 104.176505 2.06401917 94.01464548 2.07543945 83.8527832 C2.08538488 74.99906374 2.09185309 66.14534986 2.09408849 57.29162496 C2.09539584 52.60062465 2.09848321 47.90964031 2.10573006 43.2186451 C2.11248805 38.80860748 2.11461742 34.39859249 2.11310768 29.98855019 C2.11338411 28.36512377 2.11539054 26.74169664 2.11920547 25.11827469 C2.12413928 22.9115495 2.12299947 20.70491117 2.12025452 18.4981842 C2.12117631 17.26021623 2.1220981 16.02224825 2.12304783 14.74676609 C2.31348588 12.08856802 2.31348588 12.08856802 1 11 C0.76636119 9.15108054 0.58696365 7.29511969 0.4375 5.4375 C0.35371094 4.42558594 0.26992187 3.41367187 0.18359375 2.37109375 C0.12300781 1.58863281 0.06242188 0.80617187 0 0 Z " fill="#706F73" transform="translate(255,39)"/>
<path d="M0 0 C0.66 0.33 1.32 0.66 2 1 C2 1.99 2 2.98 2 4 C2.59296875 4.27328125 3.1859375 4.5465625 3.796875 4.828125 C5.92786495 5.96163029 7.46589549 7.13910952 9.25 8.75 C12.51267504 11.63757357 15.93807044 14.19157913 19.49609375 16.703125 C19.99238281 17.13109375 20.48867187 17.5590625 21 18 C21 18.66 21 19.32 21 20 C21.66 20 22.32 20 23 20 C29.13651994 35.78370014 29.13651994 35.78370014 26.375 42.6875 C24.54688798 46.43321203 22.56432973 48.72278934 19 51 C18.34 50.67 17.68 50.34 17 50 C16.62109375 47.234375 16.62109375 47.234375 16.4375 43.75 C16.21483051 39.73286071 15.89308955 35.92664165 15 32 C14.01 31.67 13.02 31.34 12 31 C11.34 30.01 10.68 29.02 10 28 C7.59027402 26.98675674 7.59027402 26.98675674 4.875 26.3125 C3.96492188 26.06113281 3.05484375 25.80976562 2.1171875 25.55078125 C1.41851562 25.36902344 0.71984375 25.18726562 0 25 C0.02094727 26.20011719 0.04189453 27.40023437 0.06347656 28.63671875 C0.13623187 33.11690193 0.18192832 37.59703355 0.21972656 42.07763672 C0.23976141 44.01164552 0.26699729 45.94559435 0.30175781 47.87939453 C0.35063571 50.66974743 0.37305019 53.45929501 0.390625 56.25 C0.41127014 57.10553467 0.43191528 57.96106934 0.45318604 58.8425293 C0.45588938 66.18193666 -1.96196198 70.91007139 -5.9375 76.9375 C-8.30103717 79.30103717 -9.71418244 79.72618187 -13 80 C-12.61328125 79.59910156 -12.2265625 79.19820313 -11.828125 78.78515625 C-11.30734375 78.21667969 -10.7865625 77.64820313 -10.25 77.0625 C-9.48429688 76.24458984 -9.48429688 76.24458984 -8.703125 75.41015625 C-3.83294144 68.5181763 -2.40206771 62.04208559 -2.390625 53.71484375 C-2.37408875 52.77314835 -2.35755249 51.83145294 -2.34051514 50.86122131 C-2.29236581 47.88657902 -2.27073806 44.91244666 -2.25 41.9375 C-2.22181264 39.90687584 -2.19188138 37.87627509 -2.16015625 35.84570312 C-2.08661594 30.89717747 -2.03683988 25.94892942 -2 21 C-0.25826631 21.58486959 1.47920425 22.1824422 3.21484375 22.78515625 C4.18284912 23.11652588 5.15085449 23.44789551 6.14819336 23.78930664 C11.34925909 25.99734405 15.45563943 29.51559387 18.4375 34.3125 C19.31531224 38.50649183 19.68497932 42.73064075 20 47 C23.54356682 41.45354759 24.95893074 36.64402013 24 30 C21.33616653 21.43767814 16.042441 17.12177527 9 12 C7.46134748 10.79321371 5.93883261 9.56541066 4.4375 8.3125 C3.79683594 7.79300781 3.15617187 7.27351563 2.49609375 6.73828125 C0.62526905 4.56460764 0.34930919 2.80882872 0 0 Z " fill="#14C2F2" transform="translate(139,99)"/>
<path d="M0 0 C0.66 0.33 1.32 0.66 2 1 C1.47599609 1.70576172 1.47599609 1.70576172 0.94140625 2.42578125 C0.48636719 3.04839844 0.03132813 3.67101562 -0.4375 4.3125 C-0.88996094 4.92738281 -1.34242187 5.54226562 -1.80859375 6.17578125 C-4.58695197 10.42985761 -4.62409834 15.09637015 -4 20 C-2.90817873 22.61751038 -1.60876311 24.63712918 0 27 C-2.64867614 29.72657838 -5.29753401 32.29129572 -8.25 34.6875 C-11.01742194 36.7042322 -11.01742194 36.7042322 -12 39 C-18.93 39 -25.86 39 -33 39 C-30.62425286 36.62425286 -28.35639828 35.67074048 -25.3125 34.25 C-20.16512808 31.7163834 -16.01633577 29.08364866 -12 25 C-11.21625 24.236875 -10.4325 23.47375 -9.625 22.6875 C-7.66381319 19.44399874 -7.59649681 17.06372825 -7.3359375 13.34765625 C-6.57436352 8.02549389 -3.88957538 3.62286164 0 0 Z " fill="#443DE5" transform="translate(101,152)"/>
<path d="M0 0 C0.99 0.33 1.98 0.66 3 1 C3 20.47 3 39.94 3 60 C1.68 60.66 0.36 61.32 -1 62 C-1.02312764 54.06386213 -1.04091723 46.12773824 -1.05181217 38.19157505 C-1.05704008 34.50685502 -1.06413605 30.82215797 -1.07543945 27.13745117 C-1.08627162 23.58429169 -1.09227753 20.03115437 -1.09487724 16.47797966 C-1.0967309 15.11954334 -1.10035038 13.76110829 -1.10573006 12.40268135 C-1.11294475 10.50617777 -1.11340809 8.60965207 -1.11352539 6.71313477 C-1.115746 5.63169693 -1.11796661 4.55025909 -1.12025452 3.43605042 C-1 1 -1 1 0 0 Z " fill="#582E8E" transform="translate(68,87)"/>
<path d="M0 0 C1.32 0 2.64 0 4 0 C4 17.82 4 35.64 4 54 C2.68 54 1.36 54 0 54 C0 36.18 0 18.36 0 0 Z " fill="#944FD4" transform="translate(49,105)"/>
<path d="M0 0 C1.32 0.33 2.64 0.66 4 1 C4 18.49 4 35.98 4 54 C2.68 54 1.36 54 0 54 C0 36.18 0 18.36 0 0 Z " fill="#14A3D3" transform="translate(214,105)"/>
<path d="M0 0 C1.32 0 2.64 0 4 0 C4 16.83 4 33.66 4 51 C2.68 51 1.36 51 0 51 C0 34.17 0 17.34 0 0 Z " fill="#1C9DE0" transform="translate(205,110)"/>
<path d="M0 0 C0.66 0.33 1.32 0.66 2 1 C1.50628906 1.66386719 1.01257813 2.32773437 0.50390625 3.01171875 C-0.45708984 4.33623047 -0.45708984 4.33623047 -1.4375 5.6875 C-2.07558594 6.55761719 -2.71367188 7.42773438 -3.37109375 8.32421875 C-4.98971649 10.98310742 -5.6083962 12.93887169 -6 16 C-6.66 16 -7.32 16 -8 16 C-8.11601563 16.67289063 -8.23203125 17.34578125 -8.3515625 18.0390625 C-9.12477266 21.56974504 -10.22134624 24.95524065 -11.375 28.375 C-11.58382812 29.00921875 -11.79265625 29.6434375 -12.0078125 30.296875 C-13.45964141 34.63465651 -15.15574582 38.81023281 -17 43 C-19.10325984 47.87273549 -21.14721863 52.76292379 -23.125 57.6875 C-23.38925781 58.33783203 -23.65351562 58.98816406 -23.92578125 59.65820312 C-25.16697323 62.74858213 -26.22551082 65.76451715 -27 69 C-27.96887581 71.01526169 -28.9641321 73.01833966 -30 75 C-30.33 75 -30.66 75 -31 75 C-30.53012091 67.68645357 -28.68402962 61.80111509 -25.921875 55.04296875 C-25.51342346 54.0187532 -25.10497192 52.99453766 -24.68414307 51.93928528 C-23.38315323 48.68441017 -22.06678785 45.43601129 -20.75 42.1875 C-19.88050684 40.01798007 -19.01200807 37.84806132 -18.14453125 35.67773438 C-16.16381998 30.73317221 -14.18082414 25.78970379 -12.16467285 20.85946655 C-11.33783026 18.82942977 -10.52323846 16.79438398 -9.71716309 14.75601196 C-9.28875122 13.68966522 -8.86033936 12.62331848 -8.41894531 11.5246582 C-8.0349054 10.55687943 -7.65086548 9.58910065 -7.25518799 8.59199524 C-5.44193044 4.8475721 -3.16968959 2.65369361 0 0 Z " fill="#9B5DEA" transform="translate(118,50)"/>
<path d="M0 0 C0.99 0.495 0.99 0.495 2 1 C2 2.32 2 3.64 2 5 C2.99 5.33 3.98 5.66 5 6 C5 22.5 5 39 5 56 C4.34 56 3.68 56 3 56 C2.67 53.03 2.34 50.06 2 47 C2 48.65 2 50.3 2 52 C1.01 52.495 1.01 52.495 0 53 C0 35.51 0 18.02 0 0 Z " fill="#222742" transform="translate(53,105)"/>
<path d="M0 0 C0.66 0.33 1.32 0.66 2 1 C2 18.49 2 35.98 2 54 C1.34 54 0.68 54 0 54 C-0.33 48.72 -0.66 43.44 -1 38 C-1.33 38 -1.66 38 -2 38 C-2.33 32.72 -2.66 27.44 -3 22 C-6.11332248 22.66868314 -6.11332248 22.66868314 -7.1875 25.0625 C-7.455625 25.701875 -7.72375 26.34125 -8 27 C-8.33 27 -8.66 27 -9 27 C-9 23.04 -9 19.08 -9 15 C-8.67 15 -8.34 15 -8 15 C-8 16.98 -8 18.96 -8 21 C-6.02 20.67 -4.04 20.34 -2 20 C-1.83109082 17.77100213 -1.66496313 15.54179338 -1.5 13.3125 C-1.4071875 12.07113281 -1.314375 10.82976562 -1.21875 9.55078125 C-1.08658758 7.40550201 -1.00804653 5.2546899 -1.03125 3.10546875 C-1 1 -1 1 0 0 Z " fill="#282242" transform="translate(47,105)"/>
<path d="M0 0 C2.40274802 2.40274802 3.11507422 4.4527901 4.35546875 7.6171875 C4.81010498 8.77299316 5.26474121 9.92879883 5.7331543 11.11962891 C6.21836295 12.37125392 6.70313647 13.62304769 7.1875 14.875 C7.43166656 15.50138367 7.67583313 16.12776733 7.92739868 16.77313232 C11.13893107 25.01208141 14.25738359 33.28116703 17.1875 41.625 C17.47842529 42.45241699 17.76935059 43.27983398 18.0690918 44.13232422 C20 49.73501533 20 49.73501533 20 52 C11.42 52 2.84 52 -6 52 C-6 51.67 -6 51.34 -6 51 C5.385 50.01 5.385 50.01 17 49 C16.236875 47.205625 15.47375 45.41125 14.6875 43.5625 C12.84620487 39.15063273 11.19996796 34.74759582 9.73828125 30.19921875 C7.98926537 24.98918732 5.82187424 19.92815071 3.66796875 14.875 C3.22066406 13.823125 2.77335938 12.77125 2.3125 11.6875 C1.89613281 10.72199219 1.47976562 9.75648438 1.05078125 8.76171875 C0.05816784 6.15287978 -0.63293574 3.76521743 -1 1 C-0.67 0.67 -0.34 0.34 0 0 Z " fill="#0BCDEA" transform="translate(187,140)"/>
<path d="M0 0 C0.99 0 1.98 0 3 0 C3.02529589 6.65689282 3.04284396 13.3137733 3.05493164 19.97070312 C3.05996926 22.23665836 3.06679952 24.50261033 3.07543945 26.76855469 C3.08752996 30.02019047 3.09323392 33.27178339 3.09765625 36.5234375 C3.10281754 37.54118256 3.10797882 38.55892761 3.11329651 39.60751343 C3.11337204 40.54833771 3.11344757 41.48916199 3.11352539 42.45849609 C3.115746 43.28900482 3.11796661 44.11951355 3.12025452 44.97518921 C3 47 3 47 2 49 C1.34 49 0.68 49 0 49 C0 32.83 0 16.66 0 0 Z " fill="#A75AE7" transform="translate(58,110)"/>
<path d="M0 0 C0.99 0 1.98 0 3 0 C3 16.5 3 33 3 50 C0 47 0 47 -0.36076355 44.85493469 C-0.35410172 44.02664658 -0.34743988 43.19835846 -0.34057617 42.3449707 C-0.34034958 41.40422195 -0.34012299 40.46347321 -0.33988953 39.49421692 C-0.32440567 38.48163315 -0.30892181 37.46904938 -0.29296875 36.42578125 C-0.28872391 35.38681198 -0.28447906 34.34784271 -0.28010559 33.27738953 C-0.26329849 29.95549724 -0.22564196 26.63420925 -0.1875 23.3125 C-0.17245582 21.06185771 -0.15876695 18.81120593 -0.14648438 16.56054688 C-0.11338836 11.04015803 -0.06316869 5.52012218 0 0 Z " fill="#13D7EA" transform="translate(196,87)"/>
<path d="M0 0 C0.66 0 1.32 0 2 0 C1.14487017 3.60757897 0.06261953 7.13631929 -1 10.6875 C-2.35157233 15.39855607 -3.40031094 19.83467533 -3.79296875 24.7109375 C-4.05254628 27.5809834 -4.48398569 30.40428423 -4.9375 33.25 C-5.16759766 34.71179687 -5.16759766 34.71179687 -5.40234375 36.203125 C-5.99497207 38.9764706 -6.86828956 41.40511582 -8 44 C-8.33 44 -8.66 44 -9 44 C-9.05437005 41.14557247 -9.09384974 38.29219924 -9.125 35.4375 C-9.14175781 34.63763672 -9.15851562 33.83777344 -9.17578125 33.01367188 C-9.21705174 27.95803708 -8.55908337 23.85826729 -7 19 C-6.70565619 17.19116925 -6.43306426 15.37859613 -6.1875 13.5625 C-5.28662538 8.34463419 -3.56592615 3.98880842 0 0 Z " fill="#27283A" transform="translate(23,28)"/>
<path d="M0 0 C0.33 0 0.66 0 1 0 C1 9.57 1 19.14 1 29 C1.99 29.33 2.98 29.66 4 30 C3.34 30.33 2.68 30.66 2 31 C1.01 30.34 0.02 29.68 -1 29 C-1.40843923 26.28796348 -1.13336867 23.7562858 -1 21 C-1.969375 21.020625 -2.93875 21.04125 -3.9375 21.0625 C-7 21 -7 21 -8 20 C-8.07205511 18.31391034 -8.08386068 16.62499341 -8.0625 14.9375 C-8.05347656 14.01839844 -8.04445313 13.09929687 -8.03515625 12.15234375 C-8.02355469 11.44207031 -8.01195313 10.73179687 -8 10 C-6.35 9.67 -4.7 9.34 -3 9 C-2.67 9.66 -2.34 10.32 -2 11 C-1.34 7.37 -0.68 3.74 0 0 Z " fill="#3C295D" transform="translate(33,120)"/>
<path d="M0 0 C0.33 0 0.66 0 1 0 C1 18.81 1 37.62 1 57 C0.67 57 0.34 57 0 57 C-0.33 50.4 -0.66 43.8 -1 37 C-1.66 38.32 -2.32 39.64 -3 41 C-3 31.76 -3 22.52 -3 13 C-2.67 13 -2.34 13 -2 13 C-1.67 14.98 -1.34 16.96 -1 19 C-0.67 12.73 -0.34 6.46 0 0 Z " fill="#04030F" transform="translate(194,88)"/>
<path d="M0 0 C2.85167721 2.76780435 5.60380787 5.59671945 8.25 8.5625 C8.75015625 9.12066406 9.2503125 9.67882812 9.765625 10.25390625 C11.12134665 12.17165174 11.49389332 13.7296149 12 16 C12.474375 16.474375 12.94875 16.94875 13.4375 17.4375 C15.41397845 19.41397845 15.98934216 21.41018929 17 24 C17.99387334 25.33790641 18.9926892 26.67218122 20 28 C20 28.66 20 29.32 20 30 C20.66 30 21.32 30 22 30 C22 30.66 22 31.32 22 32 C23.65984798 32.68346682 25.32836805 33.34588315 27 34 C28.3303125 34.5259375 28.3303125 34.5259375 29.6875 35.0625 C34.08740511 36.30775616 38.45191045 36.65844387 43 37 C43 37.33 43 37.66 43 38 C30.1313068 39.75386131 30.1313068 39.75386131 24 36 C17.8246663 30.87899156 13.95347744 23.64995903 9.9375 16.8125 C6.59185528 11.1781897 2.73033948 6.55514172 -2 2 C-1.34 1.34 -0.68 0.68 0 0 Z " fill="#1D87E8" transform="translate(147,153)"/>
<path d="M0 0 C0.33 0 0.66 0 1 0 C1 15.84 1 31.68 1 48 C1.66 48 2.32 48 3 48 C3.33 32.16 3.66 16.32 4 0 C4.33 0 4.66 0 5 0 C5 16.5 5 33 5 50 C3.02 50.495 3.02 50.495 1 51 C-0.21983748 48.56032503 -0.12051527 47.00095476 -0.11352539 44.27490234 C-0.11344986 43.29403656 -0.11337433 42.31317078 -0.11329651 41.30258179 C-0.10813522 40.24108917 -0.10297394 39.17959656 -0.09765625 38.0859375 C-0.0962413 37.00116119 -0.09482635 35.91638489 -0.09336853 34.79873657 C-0.08775802 31.32413 -0.07520372 27.84958719 -0.0625 24.375 C-0.05748635 22.02343843 -0.05292321 19.67187585 -0.04882812 17.3203125 C-0.03778518 11.54685314 -0.02103679 5.77343112 0 0 Z " fill="#422879" transform="translate(57,111)"/>
<path d="M0 0 C1.32 0 2.64 0 4 0 C4.08782542 3.52067351 4.14066643 7.04106144 4.1875 10.5625 C4.21263672 11.55314453 4.23777344 12.54378906 4.26367188 13.56445312 C4.32313872 19.53095962 3.82397192 23.71524416 1 29 C0.67 29 0.34 29 0 29 C0 19.43 0 9.86 0 0 Z " fill="#3E289B" transform="translate(76,101)"/>
<path d="M0 0 C0.99 0.33 1.98 0.66 3 1 C3 10.24 3 19.48 3 29 C0.19663441 24.79495161 -1.25507483 22.15581923 -1.23046875 17.05078125 C-1.22853516 16.12072266 -1.22660156 15.19066406 -1.22460938 14.23242188 C-1.21236328 13.26884766 -1.20011719 12.30527344 -1.1875 11.3125 C-1.18685547 10.33732422 -1.18621094 9.36214844 -1.18554688 8.35742188 C-1.14034598 1.14034598 -1.14034598 1.14034598 0 0 Z " fill="#1055A4" transform="translate(187,100)"/>
<path d="M0 0 C0.33 0 0.66 0 1 0 C1 19.8 1 39.6 1 60 C-0.485 60.495 -0.485 60.495 -2 61 C-3.44207941 58.11584117 -3.09394887 55.58278472 -3.0625 52.375 C-3.05347656 51.18648437 -3.04445312 49.99796875 -3.03515625 48.7734375 C-3.02355469 47.85820312 -3.01195312 46.94296875 -3 46 C-2.34 46.33 -1.68 46.66 -1 47 C-0.67 31.49 -0.34 15.98 0 0 Z " fill="#0E5980" transform="translate(199,88)"/>
<path d="M0 0 C2.475 0.99 2.475 0.99 5 2 C4.01 2.66 3.02 3.32 2 4 C1.7826096 7.03120745 1.74921963 9.85792423 1.84765625 12.8828125 C1.87587758 14.70832985 1.90386478 16.53385082 1.93164062 18.359375 C1.99357385 21.23620998 2.06218097 24.11272832 2.13696289 26.98925781 C2.20377728 29.76624585 2.24546621 32.5428233 2.28515625 35.3203125 C2.31521255 36.16957306 2.34526886 37.01883362 2.37623596 37.89382935 C2.46630955 45.23480382 0.03499315 49.9146878 -3.9375 55.9375 C-6.30103717 58.30103717 -7.71418244 58.72618187 -11 59 C-10.61328125 58.59910156 -10.2265625 58.19820312 -9.828125 57.78515625 C-9.30734375 57.21667969 -8.7865625 56.64820313 -8.25 56.0625 C-7.48429688 55.24458984 -7.48429688 55.24458984 -6.703125 54.41015625 C-1.83294144 47.5181763 -0.40206771 41.04208559 -0.390625 32.71484375 C-0.37408875 31.77314835 -0.35755249 30.83145294 -0.34051514 29.86122131 C-0.29236581 26.88657902 -0.27073806 23.91244666 -0.25 20.9375 C-0.22181264 18.90687584 -0.19188138 16.87627509 -0.16015625 14.84570312 C-0.08661594 9.89717747 -0.03683988 4.94892942 0 0 Z " fill="#3FB3F6" transform="translate(137,120)"/>
<path d="M0 0 C0.99 0 1.98 0 3 0 C3 10.56 3 21.12 3 32 C1.515 32.495 1.515 32.495 0 33 C0 22.11 0 11.22 0 0 Z " fill="#A054E2" transform="translate(67,93)"/>
<path d="M0 0 C5.99407052 1.34866587 9.85158125 4.65131276 14 9 C16.74418845 13.41456403 16.62423339 18.90737359 17 24 C18.80066242 21.0534615 20.50163895 18.11198065 22 15 C22.8125 17.625 22.8125 17.625 23 21 C21.06270495 24.49677737 18.84509998 26.71830001 15 28 C13.16738497 26.16738497 13.65518436 23.2218651 13.5 20.75 C13.24608531 16.74177532 12.88432809 12.92052118 12 9 C11.01 8.67 10.02 8.34 9 8 C8.34 7.01 7.68 6.02 7 5 C4.82102508 3.99194445 4.82102508 3.99194445 2.375 3.3125 C1.55773437 3.06113281 0.74046875 2.80976562 -0.1015625 2.55078125 C-0.72804687 2.36902344 -1.35453125 2.18726562 -2 2 C-1.34 1.34 -0.68 0.68 0 0 Z " fill="#26B0F3" transform="translate(142,122)"/>
<path d="M0 0 C0.99 0 1.98 0 3 0 C3 9.57 3 19.14 3 29 C2.01 29 1.02 29 0 29 C0 19.43 0 9.86 0 0 Z " fill="#A054D8" transform="translate(34,120)"/>
<path d="M0 0 C0.99 0 1.98 0 3 0 C3 9.57 3 19.14 3 29 C2.01 29 1.02 29 0 29 C0 19.43 0 9.86 0 0 Z " fill="#14C0EB" transform="translate(230,120)"/>
<path d="M0 0 C0.33 0 0.66 0 1 0 C1.33 1.65 1.66 3.3 2 5 C2.66 4.34 3.32 3.68 4 3 C4.33 11.91 4.66 20.82 5 30 C4.34 30 3.68 30 3 30 C2.67 27.03 2.34 24.06 2 21 C2 22.65 2 24.3 2 26 C1.34 26.33 0.68 26.66 0 27 C0 18.09 0 9.18 0 0 Z " fill="#171B35" transform="translate(53,131)"/>
<path d="M0 0 C0.33 0 0.66 0 1 0 C1.64218488 6.67872273 -0.0473562 11.19247575 -2.80859375 17.265625 C-3.80425991 19.55076045 -4.46721749 21.58198708 -5 24 C-5.65509503 26.00382009 -6.31974363 28.00458132 -7 30 C-7.99 30 -8.98 30 -10 30 C-9.41054142 25.81131279 -8.4409435 22.11289424 -6.93359375 18.1640625 C-6.53076172 17.10058594 -6.12792969 16.03710938 -5.71289062 14.94140625 C-5.29201172 13.84699219 -4.87113281 12.75257813 -4.4375 11.625 C-4.01275391 10.50738281 -3.58800781 9.38976562 -3.15039062 8.23828125 C-2.10520253 5.49025861 -1.05493476 2.74429248 0 0 Z " fill="#9C55E2" transform="translate(86,121)"/>
<path d="M0 0 C0.66 0.33 1.32 0.66 2 1 C1.50628906 1.66386719 1.01257813 2.32773437 0.50390625 3.01171875 C-0.13675781 3.89472656 -0.77742188 4.77773438 -1.4375 5.6875 C-2.07558594 6.55761719 -2.71367188 7.42773438 -3.37109375 8.32421875 C-4.98971649 10.98310742 -5.6083962 12.93887169 -6 16 C-6.66 16 -7.32 16 -8 16 C-8.103125 16.66 -8.20625 17.32 -8.3125 18 C-9.19213564 21.83841009 -10.56969896 25.33096691 -12 29 C-12.66 29 -13.32 29 -14 29 C-14.33 29.66 -14.66 30.32 -15 31 C-14.3742255 25.41337547 -12.45923662 20.64097448 -10.3125 15.5 C-9.98572266 14.67113281 -9.65894531 13.84226562 -9.32226562 12.98828125 C-7.02413177 7.4604564 -4.49596496 3.96210932 0 0 Z " fill="#8876E9" transform="translate(118,50)"/>
<path d="M0 0 C4.74713667 7.12070501 4.26862942 14.42663382 4.1953125 22.71484375 C4.1924826 23.92572159 4.18965271 25.13659943 4.18673706 26.38417053 C4.1755803 30.23538268 4.15048355 34.08635864 4.125 37.9375 C4.1149644 40.55533517 4.10583956 43.17317401 4.09765625 45.79101562 C4.07565567 52.19409042 4.04222276 58.59702833 4 65 C3.67 65 3.34 65 3 65 C2.98969254 64.33823257 2.97938507 63.67646515 2.96876526 62.99464417 C2.86094051 56.13328687 2.74632391 49.27206734 2.62768555 42.41088867 C2.58425934 39.84711579 2.54259015 37.28331254 2.50268555 34.71948242 C2.44516853 31.04336372 2.38142137 27.36739901 2.31640625 23.69140625 C2.29969376 22.53725723 2.28298126 21.38310822 2.26576233 20.19398499 C2.24581711 19.13296066 2.22587189 18.07193634 2.20532227 16.97875977 C2.18200584 15.56978172 2.18200584 15.56978172 2.15821838 14.13233948 C2.23454841 12.01693335 2.23454841 12.01693335 1 11 C0.76636119 9.15108054 0.58696365 7.29511969 0.4375 5.4375 C0.35371094 4.42558594 0.26992187 3.41367187 0.18359375 2.37109375 C0.12300781 1.58863281 0.06242188 0.80617187 0 0 Z " fill="#1C1C1F" transform="translate(255,39)"/>
<path d="M0 0 C0.33 0 0.66 0 1 0 C1 18.15 1 36.3 1 55 C-3.29 54.67 -7.58 54.34 -12 54 C-12 53.67 -12 53.34 -12 53 C-6.06 52.505 -6.06 52.505 0 52 C0 34.84 0 17.68 0 0 Z " fill="#3B4C81" transform="translate(128,93)"/>
<path d="M0 0 C0.33 0 0.66 0 1 0 C1 16.83 1 33.66 1 51 C-0.32 51 -1.64 51 -3 51 C-3 48.36 -3 45.72 -3 43 C-2.34 43.33 -1.68 43.66 -1 44 C-0.67 29.48 -0.34 14.96 0 0 Z " fill="#125797" transform="translate(208,110)"/>
<path d="M0 0 C0.33 0 0.66 0 1 0 C1.06058594 1.15757813 1.12117187 2.31515625 1.18359375 3.5078125 C1.26805502 5.04688457 1.35270018 6.58594655 1.4375 8.125 C1.47681641 8.88554688 1.51613281 9.64609375 1.55664062 10.4296875 C1.73836734 13.67281035 1.95687472 16.77239433 2.5625 19.96875 C3.16691582 24.15648817 2.8544643 28.16668698 2.5625 32.375 C2.51029297 33.20644531 2.45808594 34.03789063 2.40429688 34.89453125 C2.27561269 36.93008108 2.13864593 38.96510441 2 41 C1.01 41.495 1.01 41.495 0 42 C0 28.14 0 14.28 0 0 Z " fill="#02060E" transform="translate(200,87)"/>
<path d="M0 0 C0.99 0.33 1.98 0.66 3 1 C3 5.95 3 10.9 3 16 C1.68 16 0.36 16 -1 16 C-1.02685095 13.52076199 -1.04676547 11.0418116 -1.0625 8.5625 C-1.07506836 7.50192383 -1.07506836 7.50192383 -1.08789062 6.41992188 C-1.09653588 4.61306441 -1.05220011 2.80612397 -1 1 C-0.67 0.67 -0.34 0.34 0 0 Z " fill="#914FCD" transform="translate(42,126)"/>
<path d="M0 0 C0.83865439 3.11028516 1.08276532 5.77215268 1 9 C1 9.99 1 10.98 1 12 C0.84310465 14.56355803 0.67703016 17.12534729 0.5 19.6875 C0.42845703 20.7403418 0.42845703 20.7403418 0.35546875 21.81445312 C0.23787848 23.54303016 0.11905865 25.27152348 0 27 C-0.33 27 -0.66 27 -1 27 C-1.33 30.96 -1.66 34.92 -2 39 C-2.33 39 -2.66 39 -3 39 C-3.08817767 34.56262836 -3.14078435 30.12548653 -3.1875 25.6875 C-3.21263672 24.44419922 -3.23777344 23.20089844 -3.26367188 21.91992188 C-3.32511512 14.11662913 -2.54126795 7.39269267 0 0 Z " fill="#5E5E6C" transform="translate(13,40)"/>
<path d="M0 0 C0.73828125 1.625 0.73828125 1.625 1 4 C-0.58203125 6.875 -0.58203125 6.875 -2.8125 10 C-6.23050543 14.80958976 -6.23050543 14.80958976 -9 20 C-9.99 20 -10.98 20 -12 20 C-10.02651335 12.30340207 -5.03676517 6.00537385 0 0 Z " fill="#494A59" transform="translate(26,20)"/>
<path d="M0 0 C0.66 0.66 1.32 1.32 2 2 C1.01 5.3 0.02 8.6 -1 12 C-1.33 12 -1.66 12 -2 12 C-2.17835515 7.45194365 -1.99785435 4.1205746 0 0 Z M-3 12 C-2.34 12.66 -1.68 13.32 -1 14 C-1.3515625 16.29296875 -1.3515625 16.29296875 -2 19 C-2.14282835 20.7694846 -2.26729708 22.54053054 -2.375 24.3125 C-2.79356473 29.376447 -3.98292644 33.35196092 -6 38 C-6.33 38 -6.66 38 -7 38 C-7.14309031 34.9235583 -7.24334256 32.57268571 -6.02734375 29.7109375 C-4.81261979 26.50554424 -4.62061022 23.72925872 -4.4375 20.3125 C-4.09808917 14.19617834 -4.09808917 14.19617834 -3 12 Z " fill="#1B1C2E" transform="translate(21,34)"/>
<path d="M0 0 C2 2 2 2 5 12 C-3.58 12 -12.16 12 -21 12 C-21 11.67 -21 11.34 -21 11 C-13.41 10.34 -5.82 9.68 2 9 C1.34 7.35 0.68 5.7 0 4 C0 2.68 0 1.36 0 0 Z " fill="#0BCAF6" transform="translate(202,180)"/>
<path d="M0 0 C0 6.6 0 13.2 0 20 C-0.99 20 -1.98 20 -3 20 C-3 13.73 -3 7.46 -3 1 C-1 0 -1 0 0 0 Z " fill="#6433C4" transform="translate(70,125)"/>
<path d="M0 0 C0.66 0 1.32 0 2 0 C2.33 1.98 2.66 3.96 3 6 C3.804375 5.979375 4.60875 5.95875 5.4375 5.9375 C8 6 8 6 9 7 C9.07271741 9.35313555 9.08370868 11.70833668 9.0625 14.0625 C9.05347656 15.35285156 9.04445312 16.64320313 9.03515625 17.97265625 C9.02355469 18.97167969 9.01195312 19.97070312 9 21 C8.67 21 8.34 21 8 21 C7.67 16.71 7.34 12.42 7 8 C6.01 8 5.02 8 4 8 C3.67 12.95 3.34 17.9 3 23 C2.67 23 2.34 23 2 23 C2 18.71 2 14.42 2 10 C1.34 10 0.68 10 0 10 C0 6.7 0 3.4 0 0 Z " fill="#03030F" transform="translate(218,119)"/>
<path d="M0 0 C1.22566577 3.67699732 0.61791965 4.70133887 -0.75 8.25 C-1.12382813 9.22324219 -1.49765625 10.19648437 -1.8828125 11.19921875 C-2.43582031 12.58560547 -2.43582031 12.58560547 -3 14 C-3.42925781 15.09248047 -3.42925781 15.09248047 -3.8671875 16.20703125 C-4.9860402 18.94649018 -5.88696413 20.88696413 -8 23 C-9.11574135 19.69839242 -8.90312148 17.92784292 -7.63671875 14.70703125 C-7.32669922 13.91232422 -7.01667969 13.11761719 -6.69726562 12.29882812 C-6.19743164 11.0680957 -6.19743164 11.0680957 -5.6875 9.8125 C-5.20506836 8.56436523 -5.20506836 8.56436523 -4.71289062 7.29101562 C-2.26943791 1.13471896 -2.26943791 1.13471896 0 0 Z " fill="#8D68E8" transform="translate(104,79)"/>
<path d="M0 0 C2.97 0 5.94 0 9 0 C9 0.66 9 1.32 9 2 C17.58 2 26.16 2 35 2 C35 2.33 35 2.66 35 3 C24.72005385 5.3973755 13.20088711 4.44098037 3 2 C2.01 1.34 1.02 0.68 0 0 Z " fill="#403F46" transform="translate(45,255)"/>
<path d="M0 0 C0.66 0.33 1.32 0.66 2 1 C2.17635348 5.32066032 1.84101375 8.72320226 0.51171875 12.82421875 C-0.65106556 17.76827114 -0.71098665 22.94226629 -1 28 C-1.33 28 -1.66 28 -2 28 C-2 2 -2 2 0 0 Z " fill="#38394B" transform="translate(15,39)"/>
<path d="M0 0 C1.485 0.99 1.485 0.99 3 2 C3.24905022 4.75141192 3.32673572 7.25669812 3.25 10 C3.24484375 10.73734375 3.2396875 11.4746875 3.234375 12.234375 C3.15472274 17.69055451 3.15472274 17.69055451 2 20 C1.34 20 0.68 20 0 20 C0 13.4 0 6.8 0 0 Z " fill="#7845D6" transform="translate(58,139)"/>
<path d="M0 0 C0.99 0 1.98 0 3 0 C3 5.61 3 11.22 3 17 C2.01 17 1.02 17 0 17 C0 11.39 0 5.78 0 0 Z " fill="#19A6DD" transform="translate(222,126)"/>
<path d="M0 0 C2.93200946 -0.2498582 4.5534817 -0.27356521 7.09765625 1.28515625 C11.41469872 5.19023443 14.63017045 8.64212449 17 14 C16.67 14.99 16.34 15.98 16 17 C15.34 16.34 14.68 15.68 14 15 C14 13.68 14 12.36 14 11 C13.34 11 12.68 11 12 11 C9.875 9.125 9.875 9.125 8 7 C8 6.34 8 5.68 8 5 C6.02 4.34 4.04 3.68 2 3 C2 2.34 2 1.68 2 1 C1.34 0.67 0.68 0.34 0 0 Z " fill="#35B4E4" transform="translate(140,47)"/>
<path d="M0 0 C0.99 0.33 1.98 0.66 3 1 C3 1.66 3 2.32 3 3 C4.65984798 3.68346682 6.32836805 4.34588315 8 5 C9.3303125 5.5259375 9.3303125 5.5259375 10.6875 6.0625 C15.08740511 7.30775616 19.45191045 7.65844387 24 8 C24 8.33 24 8.66 24 9 C11.1313068 10.75386131 11.1313068 10.75386131 5 7 C2.0625 4.4375 2.0625 4.4375 0 2 C0 1.34 0 0.68 0 0 Z " fill="#178DE4" transform="translate(166,182)"/>
<path d="M0 0 C0 0.66 0 1.32 0 2 C-9.91748879 7.23139013 -9.91748879 7.23139013 -15.0234375 6.6640625 C-17.43888911 5.90966644 -19.71208395 5.07815513 -22 4 C-22 3.67 -22 3.34 -22 3 C-20.46279297 2.92652344 -20.46279297 2.92652344 -18.89453125 2.8515625 C-17.5338294 2.77648929 -16.17315356 2.70094345 -14.8125 2.625 C-14.13896484 2.5940625 -13.46542969 2.563125 -12.77148438 2.53125 C-8.3063272 2.26987495 -4.2368232 0 0 0 Z " fill="#3673D4" transform="translate(126,179)"/>
<path d="M0 0 C0.33 0.99 0.66 1.98 1 3 C-7.00662274 7.22079509 -13.74127838 10.377907 -23 10 C-19.5647952 7.70986347 -18.014669 7.82157027 -14 8 C-14 7.34 -14 6.68 -14 6 C-8.555 5.01 -8.555 5.01 -3 4 C-2.67 3.01 -2.34 2.02 -2 1 C-1.34 0.67 -0.68 0.34 0 0 Z " fill="#3E82EC" transform="translate(129,181)"/>
<path d="M0 0 C3.79557348 1.89778674 4.68611517 7.08616497 6.1875 10.875 C6.56841797 11.79925781 6.94933594 12.72351563 7.34179688 13.67578125 C7.69693359 14.56394531 8.05207031 15.45210937 8.41796875 16.3671875 C8.74563232 17.18300293 9.0732959 17.99881836 9.41088867 18.83935547 C10 21 10 21 9 24 C6.84895562 21.84895562 6.47850698 20.7841968 5.625 17.9375 C4.32093857 13.79125341 2.66911454 9.9488535 0.76953125 6.04296875 C0 4 0 4 0 0 Z " fill="#1AC9E9" transform="translate(156,63)"/>
<path d="M0 0 C0.33 0 0.66 0 1 0 C1 5.94 1 11.88 1 18 C0.01 18.33 -0.98 18.66 -2 19 C-2.0991667 12.90675749 -2.17328971 6.99681407 -1 1 C-0.67 0.67 -0.34 0.34 0 0 Z " fill="#974DE7" transform="translate(69,107)"/>
<path d="M0 0 C0.33 1.65 0.66 3.3 1 5 C-3.95 5 -8.9 5 -14 5 C-10.17875112 1.17875112 -5.36283848 -0.48753077 0 0 Z " fill="#552DEE" transform="translate(82,186)"/>
<path d="M0 0 C0.66 0.66 1.32 1.32 2 2 C1.34773438 2.03738281 0.69546875 2.07476562 0.0234375 2.11328125 C-5.42466515 2.52309428 -9.11441314 3.44088307 -14 6 C-16.375 5.6875 -16.375 5.6875 -18 5 C-13.74272113 -0.50941972 -6.36440956 -0.43148539 0 0 Z " fill="#668DE0" transform="translate(137,45)"/>
<path d="M0 0 C0.99 0.495 0.99 0.495 2 1 C2 1.99 2 2.98 2 4 C2.58652344 4.268125 3.17304688 4.53625 3.77734375 4.8125 C6.01491277 6.00796745 7.67698559 7.31273879 9.5625 9 C11.66995197 10.87746278 13.63332529 12.42221686 16 14 C15.67 14.99 15.34 15.98 15 17 C13.24775086 15.58611621 11.49829345 14.16877217 9.75 12.75 C8.77546875 11.96109375 7.8009375 11.1721875 6.796875 10.359375 C1.80368098 6.14723926 1.80368098 6.14723926 0 4 C0 2.68 0 1.36 0 0 Z " fill="#38B0E9" transform="translate(139,99)"/>
<path d="M0 0 C0.33 0 0.66 0 1 0 C1.33 3.3 1.66 6.6 2 10 C3.80066242 7.0534615 5.50163895 4.11198065 7 1 C7.8125 3.625 7.8125 3.625 8 7 C6.06270495 10.49677737 3.84509998 12.71830001 0 14 C-1.41778293 11.16443413 -0.86257622 9.0091294 -0.5625 5.875 C-0.46066406 4.77929688 -0.35882813 3.68359375 -0.25390625 2.5546875 C-0.17011719 1.71164063 -0.08632812 0.86859375 0 0 Z " fill="#2091D7" transform="translate(157,136)"/>
<path d="M0 0 C0.99 0 1.98 0 3 0 C1.7464611 6.01698672 -0.61959511 10.60888507 -5 15 C-7.875 16 -7.875 16 -10 16 C-9.61328125 15.59910156 -9.2265625 15.19820312 -8.828125 14.78515625 C-4.67331881 10.24983564 -2.20595577 5.72250879 0 0 Z " fill="#3697EC" transform="translate(136,163)"/>
<path d="M0 0 C0.99 0.33 1.98 0.66 3 1 C3.05389087 2.95803507 3.09274217 4.91648909 3.125 6.875 C3.14820313 7.96554688 3.17140625 9.05609375 3.1953125 10.1796875 C3 13 3 13 1 15 C-0.44207941 12.11584117 -0.09394887 9.58278472 -0.0625 6.375 C-0.05347656 5.18648438 -0.04445312 3.99796875 -0.03515625 2.7734375 C-0.02355469 1.85820313 -0.01195312 0.94296875 0 0 Z " fill="#139EE1" transform="translate(187,100)"/>
<path d="M0 0 C1.48828125 1.11328125 1.48828125 1.11328125 3 3 C3.29296875 5.91796875 3.29296875 5.91796875 3.1875 9.1875 C3.16042969 10.27417969 3.13335937 11.36085937 3.10546875 12.48046875 C3.07066406 13.31191406 3.03585938 14.14335937 3 15 C2.34 15 1.68 15 1 15 C-0.44207941 12.11584117 -0.09394887 9.58278472 -0.0625 6.375 C-0.05347656 5.18648437 -0.04445312 3.99796875 -0.03515625 2.7734375 C-0.02355469 1.85820312 -0.01195312 0.94296875 0 0 Z " fill="#1252AE" transform="translate(196,134)"/>
<path d="M0 0 C0.99 0 1.98 0 3 0 C3.08082094 1.95766281 3.13910778 3.91626728 3.1875 5.875 C3.23970703 7.51082031 3.23970703 7.51082031 3.29296875 9.1796875 C3.19628906 10.11039063 3.09960938 11.04109375 3 12 C2.01 12.66 1.02 13.32 0 14 C0 9.38 0 4.76 0 0 Z " fill="#7747E0" transform="translate(77,101)"/>
<path d="M0 0 C0.33 0 0.66 0 1 0 C1.05845196 3.37492629 1.09374742 6.74972087 1.125 10.125 C1.15013672 11.55199219 1.15013672 11.55199219 1.17578125 13.0078125 C1.21104528 18.08583255 1.03333617 22.24487525 -1 27 C-1.66 26.01 -2.32 25.02 -3 24 C-2.55347381 22.32865665 -2.09454577 20.65902867 -1.55566406 19.01513672 C-0.56601379 15.42613261 -0.52733319 11.76610078 -0.375 8.0625 C-0.33632812 7.28326172 -0.29765625 6.50402344 -0.2578125 5.70117188 C-0.16455873 3.80112621 -0.08124038 1.90059722 0 0 Z " fill="#40A6F6" transform="translate(142,143)"/>
<path d="M0 0 C2.77834684 1.38917342 2.99642986 2.95763553 4.125 5.8125 C4.47820312 6.68519531 4.83140625 7.55789062 5.1953125 8.45703125 C6 11 6 11 6 15 C5.34 15 4.68 15 4 15 C3.13419713 13.06767179 2.28270059 11.12892806 1.4375 9.1875 C0.96183594 8.10855469 0.48617187 7.02960938 -0.00390625 5.91796875 C-1 3 -1 3 0 0 Z " fill="#0BD1EB" transform="translate(181,126)"/>
<path d="M0 0 C0.33 0 0.66 0 1 0 C0.87431641 1.04800781 0.87431641 1.04800781 0.74609375 2.1171875 C0.64425781 3.02726563 0.54242188 3.93734375 0.4375 4.875 C0.33308594 5.77992188 0.22867188 6.68484375 0.12109375 7.6171875 C-0.19674852 10.01653057 -0.19674852 10.01653057 1 12 C-0.65 12 -2.3 12 -4 12 C-3.33501617 7.61110675 -1.81242323 4.0188515 0 0 Z " fill="#A551ED" transform="translate(64,180)"/>
<path d="M0 0 C0.66 0 1.32 0 2 0 C2.33 0.99 2.66 1.98 3 3 C2.34 3.66 1.68 4.32 1 5 C0.35232207 7.57061311 0.35232207 7.57061311 0 10 C-0.99 10 -1.98 10 -3 10 C-2.49287967 6.28111761 -1.88391785 3.26545761 0 0 Z " fill="#A656EF" transform="translate(79,141)"/>
<path d="M0 0 C0.66 0.33 1.32 0.66 2 1 C1.38511719 1.67095703 1.38511719 1.67095703 0.7578125 2.35546875 C-2.25640074 5.73744485 -4.66050545 8.579668 -6 13 C-6.66 11.68 -7.32 10.36 -8 9 C-7.04663979 7.68388323 -6.08714226 6.37221039 -5.125 5.0625 C-4.59132813 4.33160156 -4.05765625 3.60070312 -3.5078125 2.84765625 C-2 1 -2 1 0 0 Z " fill="#0E0A24" transform="translate(105,151)"/>
<path d="M0 0 C0.99 0.33 1.98 0.66 3 1 C3.05416188 2.60379341 3.09286638 4.20811406 3.125 5.8125 C3.14820313 6.70582031 3.17140625 7.59914062 3.1953125 8.51953125 C3 11 3 11 1 14 C-0.20568053 9.32798795 -0.09382426 4.78503708 0 0 Z " fill="#8D49E6" transform="translate(58,130)"/>
<path d="M0 0 C0.33 0 0.66 0 1 0 C1 6.27 1 12.54 1 19 C-0.98 19.99 -0.98 19.99 -3 21 C-3 19.68 -3 18.36 -3 17 C-2.01 17 -1.02 17 0 17 C0 11.39 0 5.78 0 0 Z " fill="#3D2285" transform="translate(70,128)"/>
<path d="M0 0 C1.90389849 2.85584773 2.69462177 4.9311762 3.625 8.1875 C3.88539063 9.08855469 4.14578125 9.98960937 4.4140625 10.91796875 C4.60742188 11.60503906 4.80078125 12.29210937 5 13 C4.01 13.495 4.01 13.495 3 14 C2.29866401 12.42274653 1.614417 10.83788667 0.9375 9.25 C0.55464844 8.36828125 0.17179688 7.4865625 -0.22265625 6.578125 C-1.04600008 3.84743691 -0.9773992 2.63098653 0 0 Z " fill="#04B8DA" transform="translate(198,167)"/>
<path d="M0 0 C0.99 0 1.98 0 3 0 C3 2.97 3 5.94 3 9 C2.01 9.33 1.02 9.66 0 10 C0 6.7 0 3.4 0 0 Z " fill="#1990CE" transform="translate(238,131)"/>
<path d="M0 0 C0.33 0 0.66 0 1 0 C1 4.62 1 9.24 1 14 C0.01 14 -0.98 14 -2 14 C-2 11.36 -2 8.72 -2 6 C-1.67 6 -1.34 6 -1 6 C-0.67 4.02 -0.34 2.04 0 0 Z " fill="#21A7E2" transform="translate(232,135)"/>
<path d="M0 0 C0.66 0.33 1.32 0.66 2 1 C2.1799928 6.21979128 1.97094808 10.07262981 0 15 C-0.66 14.67 -1.32 14.34 -2 14 C-2 13.01 -2 12.02 -2 11 C-1.34 11 -0.68 11 0 11 C0 7.37 0 3.74 0 0 Z " fill="#041321" transform="translate(162,128)"/>
<path d="M0 0 C0.99 0 1.98 0 3 0 C3 2.97 3 5.94 3 9 C2.01 9 1.02 9 0 9 C0 6.03 0 3.06 0 0 Z " fill="#A955DB" transform="translate(26,131)"/>
<path d="M0 0 C0.66 0.66 1.32 1.32 2 2 C0.02 4.97 -1.96 7.94 -4 11 C-4.66 10.67 -5.32 10.34 -6 10 C-6 9.01 -6 8.02 -6 7 C-5.071875 6.6596875 -5.071875 6.6596875 -4.125 6.3125 C-1.38589791 4.62070165 -0.94975528 3.00755839 0 0 Z " fill="#328FE7" transform="translate(139,169)"/>
<path d="M0 0 C1.90401138 1.90401138 2.93520439 3.33425686 3.19921875 6.046875 C3.1886578 8.03233273 3.09915043 10.0169914 3 12 C0.89366282 10.29171079 0.06198392 9.47851584 -0.29296875 6.73828125 C-0.25816406 5.93777344 -0.22335938 5.13726562 -0.1875 4.3125 C-0.16042969 3.50425781 -0.13335937 2.69601563 -0.10546875 1.86328125 C-0.07066406 1.24839844 -0.03585938 0.63351563 0 0 Z " fill="#1883DA" transform="translate(196,125)"/>
<path d="M0 0 C1.485 0.99 1.485 0.99 3 2 C3.29296875 4.1640625 3.29296875 4.1640625 3.1875 6.625 C3.16042969 7.44226563 3.13335937 8.25953125 3.10546875 9.1015625 C3.07066406 9.72804688 3.03585938 10.35453125 3 11 C0.39665076 8.28817788 0.00543309 7.10866187 -0.1875 3.25 C-0.125625 2.1775 -0.06375 1.105 0 0 Z " fill="#1EAAEF" transform="translate(196,118)"/>
<path d="M0 0 C3.35997759 5.03996638 4.29282455 9.99709677 4 16 C3.690625 15.360625 3.38125 14.72125 3.0625 14.0625 C2.1654837 12.06389179 2.1654837 12.06389179 1 11 C0.76636119 9.15108054 0.58696365 7.29511969 0.4375 5.4375 C0.35371094 4.42558594 0.26992187 3.41367187 0.18359375 2.37109375 C0.12300781 1.58863281 0.06242188 0.80617187 0 0 Z " fill="#505058" transform="translate(255,39)"/>
<path d="M0 0 C0.66 0.66 1.32 1.32 2 2 C1.63723355 4.82957829 0.90305236 7.29084291 0 10 C-0.99 10 -1.98 10 -3 10 C-2.01 6.7 -1.02 3.4 0 0 Z " fill="#9446D8" transform="translate(75,149)"/>
<path d="M0 0 C2.6855594 2.6855594 3.06049974 5.37621328 4 9 C3.34 9.66 2.68 10.32 2 11 C-1.07692308 4.6 -1.07692308 4.6 -0.6875 1.5625 C-0.460625 1.046875 -0.23375 0.53125 0 0 Z " fill="#08C0E0" transform="translate(187,140)"/>
<path d="M0 0 C0.99 0.33 1.98 0.66 3 1 C3.125 6.75 3.125 6.75 2 9 C1.34 9 0.68 9 0 9 C0 6.03 0 3.06 0 0 Z " fill="#5934C1" transform="translate(58,150)"/>
<path d="M0 0 C0.33 0 0.66 0 1 0 C1.33 2.97 1.66 5.94 2 9 C1.01 9.33 0.02 9.66 -1 10 C-1.02689216 8.52093108 -1.04634621 7.04172517 -1.0625 5.5625 C-1.07410156 4.73878906 -1.08570313 3.91507813 -1.09765625 3.06640625 C-1 1 -1 1 0 0 Z " fill="#1B69DF" transform="translate(144,145)"/>
<path d="M0 0 C0.66 0.33 1.32 0.66 2 1 C-0.97 4.96 -0.97 4.96 -4 9 C-4.33 7.68 -4.66 6.36 -5 5 C-2.5625 2.25 -2.5625 2.25 0 0 Z " fill="#8587F2" transform="translate(118,50)"/>
<path d="M0 0 C2.64752004 2.57784846 4.94432065 4.91648098 7 8 C2.75177626 7.52797514 0.80010291 5.03344482 -2 2 C-1.34 1.34 -0.68 0.68 0 0 Z " fill="#257BEA" transform="translate(147,153)"/>
<path d="M0 0 C0.33 0 0.66 0 1 0 C1 3.3 1 6.6 1 10 C-0.32 10.33 -1.64 10.66 -3 11 C-3 10.01 -3 9.02 -3 8 C-2.34 8 -1.68 8 -1 8 C-0.67 5.36 -0.34 2.72 0 0 Z " fill="#311E80" transform="translate(61,151)"/>
<path d="M0 0 C0 0.66 0 1.32 0 2 C-1.32 2 -2.64 2 -4 2 C-4 4.97 -4 7.94 -4 11 C-4.33 11 -4.66 11 -5 11 C-5.2165625 9.63875 -5.2165625 9.63875 -5.4375 8.25 C-5.86409473 5.78523044 -6.35074221 3.41152893 -7 1 C-4.53721199 -0.231394 -2.7204945 -0.07159196 0 0 Z " fill="#102A4C" transform="translate(242,129)"/>
<path d="M0 0 C2.97 0 5.94 0 9 0 C9 0.66 9 1.32 9 2 C10.98 2 12.96 2 15 2 C15 2.33 15 2.66 15 3 C9.47322267 3.19392201 5.24385089 2.7479503 0 1 C0 0.67 0 0.34 0 0 Z " fill="#393941" transform="translate(45,255)"/>
<path d="M0 0 C0.33 0 0.66 0 1 0 C0.67 2.64 0.34 5.28 0 8 C-0.66 8 -1.32 8 -2 8 C-2.33 8.66 -2.66 9.32 -3 10 C-2.49287967 6.28111761 -1.88391785 3.26545761 0 0 Z " fill="#A36FED" transform="translate(95,100)"/>
<path d="M0 0 C4.10801767 1.18676066 5.89448334 1.89448334 9 5 C5.37 4.01 1.74 3.02 -2 2 C-1.34 1.34 -0.68 0.68 0 0 Z " fill="#31AAE7" transform="translate(142,122)"/>
<path d="M0 0 C0.99 0.33 1.98 0.66 3 1 C1.66667905 4.99996286 -0.4957827 5.83782337 -4 8 C-2.66666667 5.33333333 -1.33333333 2.66666667 0 0 Z " fill="#3D53E1" transform="translate(98,177)"/>
<path d="M0 0 C0.66 0 1.32 0 2 0 C2 1.65 2 3.3 2 5 C0.68 5.33 -0.64 5.66 -2 6 C-1.34 4.02 -0.68 2.04 0 0 Z " fill="#505161" transform="translate(16,34)"/>
<path d="M0 0 C3.37503669 1.1858237 5.64722731 2.27573689 8 5 C4.17902761 4.46930939 1.93828597 3.50298434 -1 1 C-0.67 0.67 -0.34 0.34 0 0 Z " fill="#3A383F" transform="translate(229,11)"/>
<path d="M0 0 C3.3 0.99 6.6 1.98 10 3 C8.02 3.99 8.02 3.99 6 5 C5.34 4.67 4.68 4.34 4 4 C4 3.34 4 2.68 4 2 C3.01 2.33 2.02 2.66 1 3 C0.67 2.01 0.34 1.02 0 0 Z " fill="#4E4D56" transform="translate(219,7)"/>
</svg>
